<?xml version="1.0" standalone="no"?>
<!DOCTYPE svg PUBLIC "-//W3C//DTD SVG 20010904//EN"
 "http://www.w3.org/TR/2001/REC-SVG-20010904/DTD/svg10.dtd">
<svg version="1.0" xmlns="http://www.w3.org/2000/svg"
 width="500.000000pt" height="500.000000pt" viewBox="0 0 500.000000 500.000000"
 preserveAspectRatio="xMidYMid meet">

<g transform="translate(0.000000,500.000000) scale(0.100000,-0.100000)"
fill="#000000" stroke="none">
<path d="M2475 4011 c-327 -53 -605 -268 -715 -551 -16 -44 -42 -139 -56 -212
-59 -295 -6 -526 171 -753 134 -172 343 -298 573 -344 75 -16 249 -14 329 3
171 36 342 121 449 222 239 227 340 524 290 847 -63 398 -309 671 -691 767
-89 23 -273 33 -350 21z m460 -92 c120 -46 193 -95 295 -199 117 -119 200
-263 200 -349 0 -54 -34 -180 -66 -246 -37 -75 -151 -183 -236 -224 -75 -35
-161 -57 -268 -66 -153 -13 -315 46 -433 158 -202 194 -252 443 -136 685 117
244 379 342 644 241z m-513 -12 c-174 -148 -260 -366 -227 -573 24 -149 84
-263 194 -366 75 -72 131 -107 229 -146 62 -25 77 -26 212 -26 135 1 151 3
240 33 185 62 318 193 376 370 22 69 32 50 33 -65 2 -150 -47 -235 -187 -327
-129 -85 -224 -122 -382 -147 -91 -14 -251 4 -365 41 -276 91 -456 298 -495
570 -17 117 2 218 66 346 52 105 176 248 241 278 21 10 49 26 62 36 48 38 51
17 3 -24z m-204 -62 c-77 -76 -146 -189 -184 -300 -33 -95 -45 -265 -24 -343
57 -217 151 -347 328 -459 147 -92 294 -132 488 -133 226 0 433 81 591 233
102 97 38 -39 -66 -143 -140 -139 -337 -210 -579 -210 -389 1 -710 211 -842
552 -88 226 -47 479 113 709 40 57 57 72 138 117 51 28 95 49 98 46 3 -2 -25
-33 -61 -69z m-316 -252 c-42 -96 -62 -196 -62 -311 0 -282 160 -550 420 -703
91 -54 109 -62 185 -87 119 -39 169 -47 320 -47 153 0 214 9 330 48 103 34
260 120 273 150 2 4 8 7 13 7 22 0 -63 -113 -151 -200 -185 -185 -413 -271
-675 -257 -202 11 -378 83 -526 214 -187 164 -291 358 -304 563 -3 36 -2 56 1
45 78 -294 251 -503 531 -645 126 -63 205 -81 384 -87 223 -8 342 19 506 115
72 42 120 92 88 92 -8 0 -32 -11 -53 -24 -51 -34 -176 -82 -289 -111 -154 -40
-362 -32 -518 20 -420 140 -702 594 -606 975 11 41 33 104 50 140 30 64 103
181 109 175 2 -2 -10 -34 -26 -72z"/>
<path d="M2513 3664 c-8 -21 13 -42 28 -27 13 13 5 43 -11 43 -6 0 -13 -7 -17
-16z"/>
<path d="M2863 3588 c-4 -7 -10 -31 -13 -53 -3 -25 -11 -40 -20 -42 -106 -14
-118 -30 -38 -53 51 -15 53 -16 60 -59 10 -58 24 -72 38 -37 5 15 10 34 10 42
0 34 20 52 65 58 65 10 58 46 -10 46 -42 0 -55 10 -55 45 0 56 -18 82 -37 53z"/>
<path d="M2610 3285 c0 -18 -9 -31 -30 -43 -35 -20 -38 -32 -10 -39 12 -3 28
-19 36 -35 15 -28 34 -30 34 -3 0 7 12 23 28 34 l27 21 -22 17 c-12 10 -27 30
-32 46 -13 34 -31 35 -31 2z"/>
<path d="M3155 3264 c-15 -15 -15 -18 -1 -33 12 -12 21 -13 33 -5 25 16 27 31
4 43 -15 9 -23 7 -36 -5z"/>
<path d="M3012 3181 c-17 -11 -12 -56 7 -56 8 0 19 8 25 17 13 22 -11 52 -32
39z"/>
<path d="M3770 3095 c-23 -24 -23 -25 -5 -45 23 -25 26 -25 55 0 l24 21 -25
25 -25 25 -24 -26z"/>
<path d="M1415 3090 c-8 -12 3 -50 14 -50 15 0 33 30 27 45 -6 17 -32 20 -41
5z"/>
<path d="M1592 2406 c-6 -13 -20 -27 -31 -31 -29 -9 -27 -16 15 -60 28 -30 38
-35 45 -24 5 8 9 19 9 25 0 7 9 14 20 17 24 6 27 37 4 37 -9 0 -21 14 -27 30
-14 36 -20 37 -35 6z"/>
<path d="M3610 2406 c-5 -13 -22 -28 -39 -34 -43 -15 -40 -32 12 -65 15 -10
27 -26 27 -37 0 -29 29 -24 36 6 4 17 18 31 40 40 41 17 44 42 6 50 -19 4 -32
15 -39 35 -14 35 -30 37 -43 5z"/>
<path d="M1170 1935 c0 -3 6 -16 14 -28 8 -12 33 -70 55 -130 51 -133 81 -197
92 -197 5 0 9 4 9 9 0 15 80 218 94 236 10 14 18 1 55 -92 63 -160 81 -182
100 -120 22 72 91 246 110 278 12 19 21 37 21 42 0 4 -20 7 -45 7 -45 0 -54
-7 -35 -26 13 -13 -62 -232 -76 -224 -5 3 -16 25 -25 50 -44 124 -82 201 -97
198 -10 -2 -31 -45 -58 -121 -40 -114 -50 -135 -57 -126 -2 2 -21 53 -42 113
-27 76 -35 111 -27 114 29 9 8 22 -38 22 -27 0 -50 -2 -50 -5z"/>
<path d="M1986 1910 c-136 -87 -104 -282 53 -320 48 -11 55 -10 104 14 35 17
59 37 71 58 9 18 24 46 32 61 32 58 -8 153 -81 194 -58 33 -119 31 -179 -7z
m155 -36 c17 -8 37 -30 45 -49 40 -96 -14 -185 -111 -185 -72 0 -125 56 -125
132 0 87 108 145 191 102z"/>
<path d="M2517 1933 c-4 -3 -7 -73 -7 -155 0 -84 -5 -158 -10 -169 -10 -17 -7
-19 30 -19 38 0 52 11 30 25 -12 7 -14 185 -2 185 8 0 31 -40 92 -158 l28 -52
29 57 c97 188 103 192 103 71 0 -54 -4 -100 -10 -103 -23 -15 -6 -25 41 -25
50 0 50 0 35 22 -13 18 -16 53 -16 175 0 143 -1 153 -19 153 -24 0 -28 -5 -97
-132 -31 -60 -60 -108 -64 -108 -3 0 -16 21 -29 48 -41 85 -106 191 -117 192
-6 0 -14 -3 -17 -7z"/>
<path d="M3160 1783 c1 -87 -2 -166 -6 -176 -6 -16 2 -17 122 -15 135 3 132 2
125 46 0 4 -44 6 -97 4 l-95 -3 3 48 3 48 78 3 c74 3 77 4 77 27 0 24 -2 25
-80 25 l-80 0 0 44 c0 55 8 58 111 50 l79 -7 0 32 0 31 -120 0 -120 0 0 -157z"/>
<path d="M3685 1765 l0 -175 32 0 c33 0 51 14 33 25 -11 7 -14 215 -2 214 4 0
51 -54 105 -120 77 -94 103 -119 122 -119 l25 0 0 153 c0 83 3 162 6 175 6 20
3 22 -40 22 -46 0 -55 -7 -35 -27 14 -14 25 -213 12 -213 -6 0 -23 17 -39 38
-66 88 -178 202 -198 202 -20 0 -21 -4 -21 -175z"/>
<path d="M1963 1413 c-9 -3 -13 -28 -13 -71 l0 -67 -63 68 c-34 37 -68 67 -74
67 -25 0 -11 -220 13 -220 10 0 14 17 14 66 0 36 4 64 9 62 4 -1 31 -31 60
-65 72 -87 81 -84 83 27 1 50 2 100 2 112 1 22 -10 30 -31 21z"/>
<path d="M2326 1412 c-2 -4 10 -46 28 -94 47 -126 77 -165 93 -120 3 9 23 58
44 107 22 50 39 93 39 98 0 4 -8 7 -18 7 -18 0 -56 -74 -64 -125 -5 -28 -30
-25 -38 5 -21 77 -69 146 -84 122z"/>
<path d="M2660 1305 l0 -115 81 0 c71 0 80 2 77 18 -2 13 -15 18 -61 20 -53 3
-57 5 -57 27 0 23 4 25 44 25 28 0 46 5 49 14 8 21 -2 26 -50 26 -36 0 -43 3
-43 20 0 11 0 23 0 28 0 4 26 9 57 12 43 4 58 9 58 20 0 12 -17 16 -77 18
l-78 3 0 -116z"/>
<path d="M2957 1337 c-8 -105 -1 -147 24 -147 15 0 19 7 19 35 0 28 4 35 20
35 11 0 34 -16 51 -35 18 -19 41 -35 51 -35 18 0 17 2 -4 39 -21 37 -22 40 -5
58 23 27 22 85 -3 108 -12 11 -42 19 -83 22 l-64 5 -6 -85z m127 21 c17 -27
-5 -52 -48 -56 l-36 -3 0 41 0 41 36 -3 c22 -2 42 -10 48 -20z"/>
<path d="M3308 1404 c-15 -8 -31 -26 -34 -41 -6 -21 -1 -31 21 -50 15 -13 41
-27 57 -30 36 -7 46 -29 25 -51 -15 -15 -19 -15 -51 1 -29 13 -36 14 -46 2
-17 -20 25 -45 76 -45 34 0 47 5 63 26 38 48 21 81 -54 106 -29 9 -40 19 -40
33 0 24 39 33 61 14 12 -10 17 -10 27 0 9 10 7 17 -12 32 -28 23 -56 24 -93 3z"/>
<path d="M3570 1305 l0 -115 75 0 c68 0 75 2 75 20 0 18 -7 20 -55 20 -52 0
-55 1 -55 25 0 23 4 25 45 25 38 0 45 3 45 20 0 17 -7 20 -45 20 -43 0 -45 1
-45 30 0 30 1 30 55 30 48 0 55 2 55 20 0 18 -7 20 -75 20 l-75 0 0 -115z"/>
<path d="M1460 1330 c0 -74 2 -82 29 -112 24 -27 36 -33 71 -33 35 0 47 6 71
33 27 30 29 38 29 112 0 72 -2 80 -19 80 -23 0 -34 -44 -25 -100 5 -30 2 -42
-15 -59 -12 -12 -32 -21 -45 -21 -39 0 -56 35 -56 112 0 61 -2 68 -20 68 -18
0 -20 -7 -20 -80z"/>
<path d="M2156 1364 c-11 -84 -7 -171 8 -177 8 -3 17 -3 20 0 3 4 6 55 6 115
0 84 -3 108 -14 108 -8 0 -16 -17 -20 -46z"/>
<path d="M1165 1309 c-12 -19 17 -29 88 -29 60 0 68 2 65 18 -3 14 -16 18 -75
20 -46 2 -74 -1 -78 -9z"/>
<path d="M3870 1299 c0 -20 4 -21 46 -15 26 3 57 6 70 6 15 0 24 6 24 15 0 12
-14 15 -70 15 -65 0 -70 -2 -70 -21z"/>
<path d="M2590 990 c0 -15 5 -20 18 -18 9 2 17 10 17 18 0 8 -8 16 -17 18 -13
2 -18 -3 -18 -18z"/>
</g>
</svg>
